Never Let Me Go 2010 BRRip XviD-3LT0N

BASIC INFORMATION:

Format : MPEG-4
Format profile : Base Media / Version 2
Codec ID : mp42
File size : 1.06 GiB
Duration : 1h 47mn
Overall bit rate : 1 407 Kbps
Encoded date : UTC 2010-12-18 05:42:50
Tagged date : UTC 2010-12-18 06:52:37
Writing application : HandBrake 0.9.4 2009112300

Video
ID : 1
Format : AVC
Format/Info : Advanced Video Codec
Format profile : Main@L3.0
Format settings, CABAC : Yes
Format settings, ReFrames : 2 frames
Codec ID : avc1
Codec ID/Info : Advanced Video Coding
Duration : 1h 47mn
Duration_LastFrame : 1h 19mn
Bit rate mode : Variable
Bit rate : 1 238 Kbps
Width : 704 pixels
Height : 354 pixels
Display aspect ratio : 2.35:1
Original display aspect ratio : 2.35:1
Frame rate mode : Variable
Frame rate : 29.970 fps
Minimum frame rate : 14.983 fps
Maximum frame rate : 29.970 fps
Color space : YUV
Chroma subsampling : 4:2:0
Bit depth : 8 bits
Scan type : Progressive
Bits/(Pixel*Frame) : 0.166
Stream size : 952 MiB (88%)
Writing library : x264 core 79 r1347 5ddd61b
Encoded date : UTC 2010-12-18 05:42:50
Tagged date : UTC 2010-12-18 06:52:37
Color primaries : BT.601-6 525, BT.1358 525, BT.1700 NTSC, SMPTE 170M
Transfer characteristics : BT.709-5, BT.1361
Matrix coefficients : BT.601-6 525, BT.1358 525, BT.1700 NTSC, SMPTE 170M

Audio
ID : 2
Format : AAC
Format/Info : Advanced Audio Codec
Format version : Version 4
Format profile : LC
Codec ID : 40
Duration : 1h 47mn
Bit rate mode : Variable
Bit rate : 164 Kbps
Maximum bit rate : 243 Kbps
Channel(s) : 2 channels
Channel positions : Front: L R
Sampling rate : 48.0 KHz
Compression mode : Lossy
Stream size : 126 MiB (12%)
Encoded date : UTC 2010-12-18 05:42:50
Tagged date : UTC 2010-12-18 06:52:37
Text
ID : 3
Format : Apple text
Codec ID : text
Duration : 1h 47mn
Bit rate mode : Constant
Bit rate : 0
Stream size : 48.0 Bytes (0%)
Encoded date : UTC 2010-12-18 05:42:50
Tagged date : UTC 2010-12-18 06:52:37


INFOS:
 
http://www.imdb.com/title/tt0947798/


PLOT:

A thriller that zeros in on the relationship between a veteran ballet dancer and a rival.


CAST:

Director:
Darren Aronofsky
Writers:
Mark Heyman (screenplay), Andres Heinz (screenplay), and 2 more credits »
Stars:
Natalie Portman, Mila Kunis and Vincent Cassel


Screenshots:

 
http://www.leetleech.org/images/35394703959223930677.jpg


ENJOY!